<?xml version="1.0" encoding="utf-8"?>
<!-- Generator: Adobe Illustrator 22.0.1, SVG Export Plug-In . SVG Version: 6.00 Build 0)  -->
<svg version="1.1" id="Layer_1" xmlns="http://www.w3.org/2000/svg" xmlns:xlink="http://www.w3.org/1999/xlink" x="0px" y="0px"
	 viewBox="0 0 63.4 74" style="enable-background:new 0 0 63.4 74;" xml:space="preserve">
<style type="text/css">
	.st0{fill:url(#SVGID_1_);}
</style>
<linearGradient id="SVGID_1_" gradientUnits="userSpaceOnUse" x1="0.2489" y1="8.5446" x2="57.5347" y2="48.6565">
	<stop  offset="0" style="stop-color:#4F2C1D"/>
	<stop  offset="1" style="stop-color:#9A3324"/>
</linearGradient>
<path class="st0" d="M31.7,0c0,0-19.5,8.7-31.7,8.9v17.9c0,0,0,29.3,31.7,47.2c31.7-17.9,31.7-47.2,31.7-47.2V8.9
	C51.2,8.7,31.7,0,31.7,0z M60.7,27.6c0,0.3,0,6.7-3.6,15.2c-3.3,7.8-10.3,18.8-25,27l-0.5,0.3l-0.5-0.3c-14.8-8.2-21.7-19.2-25-27
	c-3.6-8.4-3.6-14.9-3.6-15.2V11l1.1-0.1C14,10.8,31,3.3,31.2,3.3l0.4-0.2L32,3.3c0.2,0.1,17.2,7.5,27.6,7.6h1.1V27.6z M35.6,18
	c0,0,0.3-0.4,0.7-0.4c0.2,0,0.4,0,0.6,0.2c0,0,0.3,0.4,0,0.8c-0.2,0.3-1,0.5-1,0.5s0.7-0.4,0.7-0.8c0,0,0,0,0-0.1
	C36.5,17.7,35.6,18,35.6,18z M31.7,5.5c-2.8,1.1-17,7-27,7.6v14.6c0,0.1,0.1,6.4,3.5,14.4c3.1,7.3,9.7,17.7,23.5,25.6
	c26.6-15.2,27-39.7,27-40V13.1C48.7,12.6,34.5,6.7,31.7,5.5z M27.7,25.4c-0.8,0.6,0.1,2.2,1.9,1.1c0,0,1.4-1.1,2.8-1.2
	c0.6,0,2.3,0,2.8-0.7c0.2-0.2,0.4-0.6-0.3-1.5c-0.3-0.4-0.7-0.7-1.2-1.1c0.2,0.5,0.6,1,0.7,1.1c0.4,0.4,0.3,0.8,0.2,1
	c-0.2,0.4-1.1,0.8-2.3,0.7c-1.1-0.1-2,0.3-2.6,0.4c0-0.2,0.2-0.4,0.2-0.8c0-0.4,0.2-0.5,0.5-0.5c0,0,0-0.2,0.2-0.3
	c0,0,0.1,0.2,0.3,0.3c0.1,0.1,0.5,0.2,0.6,0.2c0-0.1,0-0.3,0.2-0.5c0,0,0,0.6,0.8,0.6c0.7,0,0.9-0.4,0.9-0.8
	c-0.1,0.1-0.2,0.2-0.3,0.2c-0.5-0.9-3.1,0.1-3.9-0.2c-0.3-0.1-1.2-0.2-0.9-1.5c0,0,0,1.5,1.7,1c1.9-0.6,2.9-0.5,3.3-0.3
	c-0.1-0.2-0.1-0.3-0.2-0.4c0-0.1,0-0.1,0-0.1c-0.2-0.4-0.7-0.6-0.8-0.6c-0.1,0-0.3,0.7-0.3,0.7s-0.2-0.6-0.1-0.8
	c0.1-0.1,0-0.1-0.3-0.1s-0.5,1-0.5,1s-0.4-0.6-0.4-1c0.1-0.1-0.3,0.1-0.4,0.1c-0.2,0-0.2,0.8-0.2,0.8s-0.3-0.4-0.3-0.7
	c-0.1-0.2-0.9,0.4-1.2,0c-0.1-0.2-0.2-0.5-0.3-0.9c0.7-0.3,0.8-0.8,0.8-0.8c0.1-0.3-0.6-0.3-0.7-0.5c0.6-0.4,1.9-1.1,1.9-1.1
	s0.3,0.3,0.2,0.7c-0.2,0.6,0.2,0.3,0.8,0.4c0.3,0,0.5-0.1,0.6-0.3c-0.2-0.3,1.1-1.1,1.3-1.1c-1.1-0.2-2.1,0.3-2.1,0.3
	c-0.9-0.2,0-0.8,0-0.8c1-0.7,2.8-0.6,3.4-0.2c0.2,0.1,0.7,0.2,0.7,0.2c0.6-0.2,1.6-0.4,1.9,0.3c0.2,0.3,0.2,0.7,0.1,0.9
	c-0.5,1-1.8,1.1-1.8,1.1c-0.2,0-0.3,0-0.5,0c1.2,0.2,1.8,0.1,2.1,0c0.3-0.1,0.5-0.4,0.5-0.7c2.4,0.8,2.2,4.6,2.2,4.6
	c0,1.4,0.9,0.9,0.9,0.9C40,25.8,39,25.1,39,25.1c-0.4-0.4-0.5-0.9-0.6-1.1c0,0.2,0.1,0.5,0.1,1.1c0.1,2-0.3,2.4-0.8,2.9
	c-0.5,0.4-0.9,1-0.7,1.9c0.1,0.7,0.5,0.8,0.9,0.9c-0.5,0.3-1.6,0.8-2.4,0.6c-0.3-0.1-0.5-0.2-0.6-0.4c0.3-0.5,0.9-1.5,0.5-2.9
	l-0.5-2.3c0,0,0.9,4.4-1.1,5.3c-0.5,0.3-1.1,0.5-1.9,0.3c1.5-1.5,1.6-4.5,1.6-4.5L32.9,28c0,0.1-1.4,2-4,2.7c-0.1,0-0.8,0.2-1.1,1
	c-0.2,0.5-0.2,1.3,0.1,2.1c-0.6-0.6-1.4-1.3-1.4-2.2c0-0.5,0.2-1,0.6-1.5c0.3-0.4,0.7-1,0.7-1c-0.3,0.3-2.7,2.7-5,1.2
	c-0.8-0.6-1.3-1.3-1.6-1.9c0.4,0.6,1.5,1.1,1.5,1.1c2.8,0.8,4.6-1.5,4.6-1.5s-1.8,1.2-3.4-0.1c-0.3-0.3-0.5-0.8-0.5-1.2
	c2,0.7,3.1,0.5,3.4,0.4C26.2,25.7,27.7,25.4,27.7,25.4z M28.3,19.4c0.2-0.1,0.5,0.2,0.7,0.3s-0.2,0.4-0.5,0.5
	C28.4,20,28.3,19.5,28.3,19.4z M31.3,18.4c0,0,1.2-0.5,1.1-0.4c-0.1,0.1-0.2,0.3-0.3,0.4c-0.1,0.1-0.2,0.3-0.2,0.3
	c-0.2,0-0.9,0.2-0.7,0.1C31.2,18.8,31.4,18.7,31.3,18.4z M16.8,19.6c0-0.1-0.1-0.2,0-0.3c0-0.2,1.5,0.6,1.5,0.6
	c0.1-0.7-0.6-1.2-0.4-1.5c0.2-0.2,0.2-0.1,0.4-0.2c-0.1-0.4-0.7-0.8-0.7-0.8c0.7-0.2,1.2,0.8,2.1,0.5c0.3-0.1-0.1,1.7,0.2,1.7
	c0.2,0,1-0.6,1.2-0.6c0.1,0,0.1,0.5,0.3,0.4c0.5-0.2,0.6-1.2,0.6-1.2c0.2,0.2,0.2,1.3,0.1,1.8c0.2,0.2,0.5,0.1,0.5,0.3
	c0.1,0.1-1,0.4-1,0.4c-0.8,0.3-0.3,1.1-0.3,1.1c1,1.6,3.7,3.8,5.2,4.7c-0.2,0.1-0.4,0.1-0.7,0.1c-0.6,0-1.3-0.1-2.1-0.4l-0.8-0.3
	l0.1,0.8c0.1,0.7,0.3,1.2,0.7,1.5l0.1,0.1c0.2,0.1,0.3,0.2,0.5,0.3c0.2,0.1,0.3,0.1,0.4,0.1c0.1,0,0.1,0,0.2,0c0,0-0.1,0-0.1,0
	c0.1,0,0.2,0,0.2,0.1c0,0.1-0.1,0.1-0.1,0.1c-0.1,0-0.2-0.1-0.3-0.1c-2.1,0.4-4.1-4.8-4.5-5.3c-0.9-1-1.8-0.1-2.3,0.1
	c-0.1,0.1-0.2-0.3-0.2-0.4c-1.5-0.3-1.3-1.1-1.3-1.1c0.3,0.2,0.8,0.3,1.2,0.3c0-0.1-0.1-0.3,0.1-0.4c0.4-0.2,0.5-0.7,0.2-1
	c-0.1-0.1-1.5,0.2-1.5,0s0.3-0.4,0.3-0.4c-0.4-0.2-1.1,0-1.1,0C15.6,19.7,16.3,19.6,16.8,19.6z M19,36.2c-0.3,0.1-0.4,1.3-0.4,1.3
	s-0.1-0.4-0.3-0.4c-0.5,0.2-0.8,1.2-0.8,1.2c-0.3-0.7,0-1.4,0.2-1.7c-0.1-0.1-0.2-0.2-0.3-0.2c0.1-0.2,0.4-0.4,0.5-0.5
	c0.1-0.1,0.3-0.5-0.2-0.5c-0.5-0.1-1.1-0.1-1.2-0.2c0-0.2,0.1-0.3,0.1-0.4c-0.4-0.3-1,0-1,0c0-0.4,0.6-0.7,1.1-0.8
	c-0.1-0.1-0.1-0.2-0.1-0.3c0.8,0.5,1.3,0.2,1.3,0.2c0-0.3-0.4-1-0.4-1c0.1,0,0.3-0.1,0.4-0.2c-0.1-0.4-0.7-0.7-0.7-0.7
	c0.4-0.2,1,0.1,1.3,0.3c0.1-0.1,0.1-0.2,0.2-0.3c0.2,0,0.1,1,0.4,1.4c0.3,0.5,1.1,0.3,1.2,0.3c0.8-0.2,4.5-2.1,5.7-2.7
	c0.1-0.1,0.1-0.1,0.2-0.1c-0.1,0.3-0.1,0.5-0.1,0.8c0.1,0.8,0.6,1.5,1.2,2.2c-1.8,0.1-2.1,0.9-2.1,0.9c-0.3,0.9,0.7,1.2,0.7,1.2
	c-0.7,0.2-2.1-0.6-2.1-0.6c-2-0.9-2.6,1.3-2.6,1.3s-0.1-0.1-0.2-0.1c-0.2,0.6-0.8,1.1-0.8,1.1c0.2-0.1,0.2-0.8,0.2-1.2
	c-0.1,0.1-0.2,0.1-0.3,0.1C19.8,36.3,19.4,36,19,36.2z M31.2,45.4c0.1,0.1,0.1,0.3,0.1,0.4C31.5,47.9,30,48,30,48
	c0.1,0.6-0.3,1.5-0.3,1.5c-0.1,0-0.1-0.1-0.1-0.1c-0.7-1.3-1.6-1.2-2.3-1c-0.8,0.2-1.9,2.5-2.2,2.7c-0.1,0.1-0.3,0.1-0.4,0
	c0-0.1-0.1-0.2-0.2-0.3c-1.1,1-1.9,0.3-1.9,0.3c1.1-0.4,1-0.5,1.1-0.8c-0.2-0.1-0.3-0.2-0.5-0.2c-0.1-0.2,0.2-0.8,0.2-0.8
	c0.1-0.6-0.6-0.8-0.6-0.8c-0.5,0-1,0.7-1,0.7c-0.1,0.1-0.3,0-0.4-0.1c0-0.1-0.1-0.2-0.1-0.3c-0.5,0.2-0.8,0.9-0.8,0.9
	c-0.1-0.7,0.2-1.2,0.4-1.5c-0.1-0.1-0.1-0.1-0.2-0.2c0-0.3,0.1-0.5,0.1-0.5c1,0,1.2-0.2,1.2-0.5c0.1-0.3-0.3-0.5-1-0.6
	c-0.2,0-0.3,0-0.3-0.1c0.2-0.2,0.3-0.3,0.4-0.5c-0.5-0.1-1.2-0.1-1.2-0.1c0.4-0.6,1-0.7,1.5-0.6c0.1-0.1,0.1-0.3,0.1-0.4v-0.1
	c0.5,1,1.2,1.2,1.2,1.2c0.4-0.2,0-1,0-1c-0.2-0.3-0.3-0.5-0.3-0.6c0.2,0,0.3,0,0.5,0c-0.2-0.4-0.5-0.9-0.5-0.9
	c0.7-0.1,1.1,0.3,1.2,0.7c0.1,0,0.2-0.1,0.3-0.1c0.5,0,0.1,0.6,0.1,2c-0.1,1.4,1.1,0.4,1.1,0.4c1.1-0.9,1-0.9,1.3-1.4
	c0.3-0.4,0-0.5,0-0.5c-0.4-0.3-1.3-1.5-1.3-1.5c-2.2-5.1,8.6-5.1,10.4-5.1c1.2,1.5,0.3,3.4,0,3.2c-0.2,0.1-2.4,0.8-3.7,1.2
	c-1.1,0.3-1.5,1.1-1.1,1.9c0,0,0.7,1,1.7,0.4C32.4,44.5,32.3,45.6,31.2,45.4z M44.1,26.9c-0.2,0.5-0.3,0.8-0.3,0.8
	c-0.9,2.2-0.9,6.3,1.7,8.3c2.2,1.7,2,3.5,2,3.5c0,3-3.2,3.5-3.8,3.3c-0.1,0-0.4-0.1-0.6-0.2c0.2,0.2,0.4,0.5,0.3,0.9
	c-0.5,1.2-0.5,2.1-0.1,3.2c0.5,1.3,2,0.6,2,0.6c-0.2,1.2-1.8,1.2-1.8,1.2c0.3,1.1-0.6,1.4-0.6,1.4c-3.2,1.4-3.6,2.9-3.7,3.8
	c-0.1,0.5,0,1,0,1.4c0,0.1,0,0.2-0.1,0.2c-0.1-0.1-0.3-0.2-0.5-0.2c-0.3,0.7,0,1.3,0,1.3c-0.7-0.1-1-0.9-1-1.4c-0.1,0-0.3,0-0.4,0
	c0,0,0,0,0-0.1c0.1-0.2-0.1-0.6-0.1-0.6c-0.5-0.9-1.1,0.4-1.1,0.4c-0.2,1-0.2,1-0.2,1c-0.2,0.3-0.4,0.2-0.6,0.1
	c0-0.1-0.1-0.2-0.1-0.3c-0.6,0.1-1.1,0.9-1.1,0.9c-0.1-0.7,0.2-1.4,0.5-1.7c-0.1-0.1-0.1-0.1-0.2-0.2c0-0.1,0.5,0.1,1-0.3
	s0.2-0.6,0.2-0.6c-0.2-0.3-1.8,0-2.1-0.1c-0.1,0-0.1-0.1-0.1-0.2c0.1-0.1,0.2-0.3,0.2-0.4c-0.7-0.1-1.5,0.2-1.5,0.2
	c-0.1-0.7,0.9-1,1.4-1.1c0,0-0.1-0.1-0.1-0.2c0.1-0.3,0.6,0,0.6,0c0.8,0.5,1.2,0.3,1.4,0c0.3-0.2,0.1-0.6-0.4-1
	c-0.2-0.2-0.2-0.3-0.2-0.4c0.2-0.1,0.3-0.2,0.5-0.3c-0.3-0.6-1-0.7-1-0.7c0.3-0.4,1.3-0.1,1.8,0.2c0.1,0,0.1-0.1,0.2-0.1
	c0.3,0,0.4,0.3,0.4,0.3c0.2,0.9,0.5,0.9,0.5,0.9c1.5,0.1,1.8-3.1,1.8-3.1c-3.5-2.3-2.8-5.2-2.6-5.9c0,0,1.6-3.3-1.4-5
	c0,0-0.6-0.5-3.1-0.9c-0.7-0.1-1.4-0.3-2-0.7c-0.2-0.2-0.4-0.4-0.6-0.6c-0.2-0.2-0.3-0.5-0.5-0.8c-0.3-0.6-0.2-1.3-0.1-1.7
	c0.2-0.5,0.7-0.7,0.7-0.7c1.8-0.5,3-1.5,3.7-2.2c-0.2,0.7-0.5,1.5-1.1,2.1l-0.7,0.6l0.9,0.2c0.2,0.1,0.5,0.1,0.7,0.1
	c0.6,0,1.1-0.2,1.5-0.4c0.2-0.1,0.4-0.2,0.5-0.3v0.1c0.2,0.3,0.5,0.5,0.9,0.6c0.1,0.1,0.3,0.1,0.5,0.1c0.6,0,1.1-0.2,1.6-0.4
	c0.5,0.5,0.8,2.1,3.1,4.9c2.8,3.5,3.9,3.3,3.9,3.3c1.8-0.2,0.2-2.3,0.2-2.3c-4.9-4.9-2-11.5-2-11.5c-0.9-2.8,1.4-3.8,2.3-4.5
	s-0.1-1.9-0.1-1.9c2.5,1.5,0.1,4.2,0.1,4.2c2.2-1.8,2.6,1.4,2.6,1.4c-0.7-1.9-2.1-0.5-2.5,0.1c-0.2,0.2-0.3,0.4-0.4,0.6
	c-0.2,0.2-0.7,0.6-1.2,0.6C43.8,26.7,43.8,26.9,44.1,26.9z"/>
</svg>
